<?xml version="1.0" encoding="utf-8"?>
<svg width="175" height="164" viewBox="0 0 175 164" xmlns="http://www.w3.org/2000/svg"
    xmlns:xlink="http://www.w3.org/1999/xlink">
    <svg width="102" height="24" viewBox="-4 -4 102 24" id="corp_naver" y="78"
        xmlns="http://www.w3.org/2000/svg">
        <g fill="none" fill-rule="evenodd">
            <path d="M-1233-5605h4379V899h-4379z" fill="#272727" />
            <path fill="#FFF" d="M-991-221H929v400H-991z" />
            <path
                d="M8.246 8.168C8.09 9.56 7.166 10.16 6.002 10.16c-1.356 0-2.388-.96-2.388-2.82 0-1.764.924-2.82 2.376-2.82 1.14 0 2.04.6 2.196 1.896H7.058c-.084-.564-.408-.864-1.068-.864-.816 0-1.224.732-1.224 1.788 0 1.164.468 1.776 1.236 1.776.636 0 1.008-.24 1.092-.948h1.152zm2.376-.78a4.66 4.66 0 00-4.656-4.656A4.66 4.66 0 001.31 7.388a4.66 4.66 0 004.656 4.656 4.66 4.66 0 004.656-4.656zm.66 0a5.326 5.326 0 01-5.316 5.316A5.326 5.326 0 01.65 7.388a5.326 5.326 0 015.316-5.316 5.326 5.326 0 015.316 5.316zM21.398 11.6c-.132 0-.168-.036-.264-.192l-3.768-6.48v6.48c0 .156-.036.192-.192.192h-.996c-.132 0-.192-.036-.192-.192V2.756c0-.192.048-.228.228-.228h1.104c.132 0 .168.012.264.192l3.768 6.468V2.72c0-.156.036-.192.192-.192h.996c.156 0 .18.036.18.192v8.652c0 .192-.036.228-.216.228h-1.104zm9.696 0c-.108 0-.144-.012-.192-.12l-.864-2.16h-3.912l-.864 2.16c-.036.108-.072.12-.18.12h-1.104c-.144 0-.192-.06-.144-.168l3.504-8.748c.048-.132.036-.132.192-.132h1.116c.144 0 .144 0 .192.132l3.504 8.748c.036.108-.012.168-.144.168h-1.104zm-4.476-3.54h2.916l-1.452-3.696-1.464 3.696zm10.356 3.54H35.93c-.108 0-.144 0-.192-.132L32.462 2.72c-.036-.108-.036-.168.192-.168h1.032c.132 0 .156.012.192.12l2.556 6.984 2.58-6.984c.048-.108.072-.12.204-.12h1.032c.204 0 .228.06.192.168l-3.276 8.748c-.048.132-.084.132-.192.132zm4.932.012c-.324 0-.336 0-.336-.348V2.876c0-.324.012-.324.312-.324h4.26c.18 0 .18.048.18.192v.888c0 .156-.036.204-.18.204H42.89v2.448h3.096c.12 0 .18.06.18.192v.9c0 .132-.06.204-.18.204H42.89v2.736h3.396c.108 0 .168.072.168.204v.9c0 .132-.06.192-.168.192h-4.38zM53.33 11.6c-.18 0-.216-.012-.3-.12l-1.836-3.552h-1.368v3.516c0 .108-.048.156-.156.156h-1.068c-.096 0-.144-.048-.144-.156V2.696c0-.084.06-.144.144-.144h2.424c1.776 0 2.892.84 2.892 2.664 0 1.164-.54 1.98-1.44 2.4l2.004 3.816c.06.108.012.168-.144.168H53.33zm-3.504-7.788V6.68h.984c1.056 0 1.728-.42 1.728-1.476 0-.912-.528-1.392-1.344-1.392h-1.368zm15.588 7.692a7.153 7.153 0 01-1.98.264c-2.724 0-4.512-1.872-4.512-4.692 0-2.784 1.764-4.692 4.512-4.692.72 0 1.428.06 1.992.24.18.048.18.108.168.264l-.024.888c0 .252-.072.204-.264.144a6.483 6.483 0 00-1.872-.276c-1.98 0-3.132 1.416-3.132 3.432 0 1.968 1.272 3.456 3.12 3.456.828 0 1.38-.06 1.872-.24.204-.084.252-.036.252.072l.048.852c.012.18 0 .24-.18.288zm8.556-1.044c-.72.912-1.752 1.344-3.012 1.344-2.82 0-4.02-2.172-4.02-4.728 0-2.508 1.248-4.716 4.02-4.716 2.712 0 4.044 2.232 4.008 4.716-.012 1.404-.324 2.532-.996 3.384zm-3.012-6.816c-1.86 0-2.628 1.788-2.628 3.432s.768 3.444 2.628 3.444 2.616-1.8 2.616-3.444c0-1.596-.744-3.432-2.616-3.432zM81.662 11.6c-.18 0-.216-.012-.3-.12l-1.836-3.552h-1.368v3.516c0 .108-.048.156-.156.156h-1.068c-.096 0-.144-.048-.144-.156V2.696c0-.084.06-.144.144-.144h2.424c1.776 0 2.892.84 2.892 2.664 0 1.164-.54 1.98-1.44 2.4l2.004 3.816c.06.108.012.168-.144.168h-1.008zm-3.504-7.788V6.68h.984c1.056 0 1.728-.42 1.728-1.476 0-.912-.528-1.392-1.344-1.392h-1.368zm7.476 4.116v3.516c0 .108-.048.156-.156.156H84.41c-.096 0-.144-.048-.144-.156V2.696c0-.084.06-.144.144-.144h2.424c1.776 0 2.88.84 2.88 2.664 0 1.776-1.26 2.712-2.988 2.712h-1.092zm0-4.116V6.68h.972c1.068 0 1.74-.42 1.74-1.476 0-.912-.54-1.392-1.344-1.392h-1.368zm6.3 8.58a.917.917 0 01-.924-.924c0-.516.408-.912.924-.912s.912.396.912.912a.907.907 0 01-.912.924z"
                fill="#999" fill-rule="nonzero" />
        </g>
    </svg>
    <svg width="175" height="24" viewBox="-4 -4 175 24" id="corp_naver_webtoon_limited"
        xmlns="http://www.w3.org/2000/svg">
        <path
            d="M8.15 8.168C7.994 9.56 7.07 10.16 5.906 10.16c-1.356 0-2.388-.96-2.388-2.82 0-1.764.924-2.82 2.376-2.82 1.14 0 2.04.6 2.196 1.896H6.962c-.084-.564-.408-.864-1.068-.864-.816 0-1.224.732-1.224 1.788 0 1.164.468 1.776 1.236 1.776.636 0 1.008-.24 1.092-.948H8.15zm2.376-.78A4.66 4.66 0 005.87 2.732a4.66 4.66 0 00-4.656 4.656 4.66 4.66 0 004.656 4.656 4.66 4.66 0 004.656-4.656zm.66 0a5.326 5.326 0 01-5.316 5.316A5.326 5.326 0 01.554 7.388 5.326 5.326 0 015.87 2.072a5.326 5.326 0 015.316 5.316zM21.302 11.6c-.132 0-.168-.036-.264-.192l-3.768-6.48v6.48c0 .156-.036.192-.192.192h-.996c-.132 0-.192-.036-.192-.192V2.756c0-.192.048-.228.228-.228h1.104c.132 0 .168.012.264.192l3.768 6.468V2.72c0-.156.036-.192.192-.192h.996c.156 0 .18.036.18.192v8.652c0 .192-.036.228-.216.228h-1.104zm9.696 0c-.108 0-.144-.012-.192-.12l-.864-2.16H26.03l-.864 2.16c-.036.108-.072.12-.18.12h-1.104c-.144 0-.192-.06-.144-.168l3.504-8.748c.048-.132.036-.132.192-.132h1.116c.144 0 .144 0 .192.132l3.504 8.748c.036.108-.012.168-.144.168h-1.104zm-4.476-3.54h2.916l-1.452-3.696-1.464 3.696zm10.356 3.54h-1.044c-.108 0-.144 0-.192-.132L32.366 2.72c-.036-.108-.036-.168.192-.168h1.032c.132 0 .156.012.192.12l2.556 6.984 2.58-6.984c.048-.108.072-.12.204-.12h1.032c.204 0 .228.06.192.168l-3.276 8.748c-.048.132-.084.132-.192.132zm4.932.012c-.324 0-.336 0-.336-.348V2.876c0-.324.012-.324.312-.324h4.26c.18 0 .18.048.18.192v.888c0 .156-.036.204-.18.204h-3.252v2.448h3.096c.12 0 .18.06.18.192v.9c0 .132-.06.204-.18.204h-3.096v2.736h3.396c.108 0 .168.072.168.204v.9c0 .132-.06.192-.168.192h-4.38zm11.424-.012c-.18 0-.216-.012-.3-.12l-1.836-3.552H49.73v3.516c0 .108-.048.156-.156.156h-1.068c-.096 0-.144-.048-.144-.156V2.696c0-.084.06-.144.144-.144h2.424c1.776 0 2.892.84 2.892 2.664 0 1.164-.54 1.98-1.44 2.4l2.004 3.816c.06.108.012.168-.144.168h-1.008zM49.73 3.812V6.68h.984c1.056 0 1.728-.42 1.728-1.476 0-.912-.528-1.392-1.344-1.392H49.73zM67.55 11.6h-1.14c-.132 0-.156 0-.192-.132l-1.992-6.816-1.992 6.816c-.036.132-.048.132-.192.132h-1.14c-.132 0-.156 0-.192-.132L58.178 2.72c-.036-.108-.024-.168.18-.168h.996c.108 0 .144.012.18.12l1.992 6.756 1.944-6.756c.036-.108.084-.12.192-.12h1.128c.108 0 .156.012.192.12l1.944 6.756 1.992-6.756c.036-.108.072-.12.18-.12h.996c.204 0 .216.06.18.168l-2.532 8.748c-.036.132-.06.132-.192.132zm4.344.012c-.324 0-.336 0-.336-.348V2.876c0-.324.012-.324.312-.324h4.26c.18 0 .18.048.18.192v.888c0 .156-.036.204-.18.204h-3.252v2.448h3.096c.12 0 .18.06.18.192v.9c0 .132-.06.204-.18.204h-3.096v2.736h3.396c.108 0 .168.072.168.204v.9c0 .132-.06.192-.168.192h-4.38zm6.636-.012c-.096 0-.144-.036-.144-.12V2.72c0-.108.048-.168.144-.168h2.076c1.824 0 2.892.744 2.892 2.292 0 .96-.408 1.644-1.128 2.028.924.348 1.38 1.224 1.38 2.028 0 1.812-1.212 2.7-3.456 2.7H78.53zm1.224-7.776V6.26h.648c1.26 0 1.74-.54 1.74-1.308 0-.672-.42-1.128-1.536-1.128h-.852zm-.024 3.732v2.76h.588c1.536 0 2.076-.516 2.076-1.368 0-.864-.612-1.392-2.208-1.392h-.456zm8.856-3.744v7.644c0 .096-.048.144-.144.144h-1.068c-.096 0-.144-.048-.144-.144V3.812h-2.328c-.084 0-.144-.06-.144-.156v-.96c0-.084.06-.144.144-.144h6.024c.084 0 .144.06.144.144v.96c0 .108-.048.156-.144.156h-2.34zm10.296 6.648c-.72.912-1.752 1.344-3.012 1.344-2.82 0-4.02-2.172-4.02-4.728 0-2.508 1.248-4.716 4.02-4.716 2.712 0 4.044 2.232 4.008 4.716-.012 1.404-.324 2.532-.996 3.384zM95.87 3.644c-1.86 0-2.628 1.788-2.628 3.432s.768 3.444 2.628 3.444 2.616-1.8 2.616-3.444c0-1.596-.744-3.432-2.616-3.432zm12.456 6.816c-.72.912-1.752 1.344-3.012 1.344-2.82 0-4.02-2.172-4.02-4.728 0-2.508 1.248-4.716 4.02-4.716 2.712 0 4.044 2.232 4.008 4.716-.012 1.404-.324 2.532-.996 3.384zm-3.012-6.816c-1.86 0-2.628 1.788-2.628 3.432s.768 3.444 2.628 3.444 2.616-1.8 2.616-3.444c0-1.596-.744-3.432-2.616-3.432zm11.124 7.956c-.132 0-.168-.036-.264-.192l-3.768-6.48v6.48c0 .156-.036.192-.192.192h-.996c-.132 0-.192-.036-.192-.192V2.756c0-.192.048-.228.228-.228h1.104c.132 0 .168.012.264.192l3.768 6.468V2.72c0-.156.036-.192.192-.192h.996c.156 0 .18.036.18.192v8.652c0 .192-.036.228-.216.228h-1.104zm6.852 0a.139.139 0 01-.144-.144v-8.76c0-.084.06-.144.144-.144h1.08c.084 0 .144.06.144.144v7.644h3.108c.096 0 .144.048.144.156v.96c0 .084-.06.144-.144.144h-4.332zm6.132-7.908a.8.8 0 01-.816-.804c0-.468.348-.828.816-.828.468 0 .828.36.828.828a.81.81 0 01-.828.804zm-.516 7.92a.139.139 0 01-.144-.144V5.144c0-.084.06-.144.144-.144h1.008c.084 0 .144.06.144.144v6.324c0 .084-.06.144-.144.144h-1.008zm10.704-.024c-.084 0-.156-.084-.156-.168V7.268c0-.756-.36-1.272-1.032-1.272-.96 0-1.512.84-1.512 1.956v3.48c0 .108-.048.156-.144.156h-.996c-.084 0-.156-.084-.156-.168V7.268c0-.852-.348-1.272-1.056-1.272-.9 0-1.428.576-1.428 1.536v3.9c0 .108-.048.156-.144.156h-.996c-.084 0-.144-.084-.144-.168V6.644c0-.612-.012-1.212-.048-1.536-.012-.108.036-.156.168-.156h1.02c.072 0 .108.036.108.096l-.012.42c.324-.372.924-.66 1.548-.66.828 0 1.584.384 1.884 1.14.372-.768 1.152-1.14 1.968-1.14 1.356 0 2.268.852 2.268 2.304v4.32c0 .084-.06.156-.144.156h-.996zm3.612-7.896a.8.8 0 01-.816-.804c0-.468.348-.828.816-.828.468 0 .828.36.828.828a.81.81 0 01-.828.804zm-.516 7.92a.139.139 0 01-.144-.144V5.144c0-.084.06-.144.144-.144h1.008c.084 0 .144.06.144.144v6.324c0 .084-.06.144-.144.144h-1.008zm6.168-.12c-.228.144-.756.288-1.32.288-.672 0-1.056-.324-1.248-.696-.228-.42-.24-.912-.24-1.872V6.2h-.996a.139.139 0 01-.144-.144v-.948c0-.084.06-.144.144-.144h.996v-1.68c0-.084.072-.144.156-.144h.972c.096 0 .156.06.156.144v1.68h1.152c.084 0 .144.06.144.144v.948c0 .084-.06.144-.144.144h-1.152v3.096c0 .54.012.888.036 1.032.06.288.336.324.636.288.204-.036.492-.084.684-.168.084-.036.096-.024.132.108l.096.792c.012.06-.012.108-.06.144zm6.144-2.916c0 .132-.084.192-.168.192h-3.948c.084 1.068.696 1.824 1.716 1.824.528 0 1.26-.12 1.824-.456.108-.06.132.036.132.168v.828c0 .144-.036.204-.18.288-.48.252-1.164.36-1.836.36-1.98 0-3.012-1.212-3.012-3.516 0-1.728.876-3.48 2.796-3.48 1.956 0 2.688 1.572 2.688 3.444 0 .108-.012.288-.012.348zm-2.628-2.64c-.864 0-1.332.828-1.464 1.644h2.748c0-.636-.396-1.644-1.284-1.644zm8.376 5.688c-.12 0-.18-.06-.18-.192v-.456c-.324.444-1.02.792-1.656.792-1.728 0-2.748-1.356-2.748-3.564 0-2.148 1.056-3.528 2.748-3.528.636 0 1.224.264 1.656.732v-3.42c0-.132.036-.156.144-.156h.984c.108 0 .156.048.156.156v9.444c0 .132-.096.192-.192.192h-.912zM159.062 5.9c-.996 0-1.536.852-1.536 2.304 0 1.572.576 2.352 1.536 2.352.828 0 1.524-.852 1.524-2.352 0-1.548-.564-2.304-1.524-2.304zm5.958 4.1c.588 0 1.032.456 1.032.984s-.444.972-1.032.972c-.576 0-1.02-.444-1.02-.972s.444-.984 1.02-.984z"
            fill="#999" />
    </svg>
    <svg width="46" height="27" viewBox="-4 -4 46 27" id="footer_link_novel" x="55" y="102"
        xmlns="http://www.w3.org/2000/svg">
        <path
            d="M9.31 11.102H8.19c-.126 0-.182-.056-.182-.182v-.462H6.342c-.098 0-.196-.084-.196-.182v-.77c0-.098.098-.168.196-.168h1.666v-6.02c0-.126.056-.182.182-.182h1.12c.126 0 .196.056.196.182v7.602c0 .126-.07.182-.196.182zm1.386-8.176h1.19c.126 0 .182.056.182.182v7.868c0 .126-.056.182-.182.182h-1.19c-.126 0-.182-.056-.182-.182V3.108c0-.126.056-.182.182-.182zm-6.832 1.4c-.798 0-1.4.476-1.4 1.036 0 .504.602 1.036 1.4 1.036.826 0 1.414-.518 1.414-1.036 0-.56-.588-1.036-1.414-1.036zm0-1.106c1.568 0 2.842.91 2.842 2.142 0 1.176-1.232 2.1-2.842 2.1-1.554 0-2.856-.924-2.856-2.1 0-1.232 1.288-2.142 2.856-2.142zm3.472 5.572c-.63.112-1.834.224-2.604.266v1.89c0 .112-.098.21-.21.21H3.388a.215.215 0 01-.21-.21V9.184c-1.12.042-1.932.028-2.716.028-.112 0-.196-.112-.196-.224v-.812c0-.126.07-.196.196-.196 2.702.042 4.802-.056 6.706-.322.098-.014.21.042.224.154l.084.756c.014.098-.042.21-.14.224zm3.122 5.348h-5.74v.518c0 .168.084.252.252.252h5.236c.168 0 .252-.084.252-.252v-.518zm.56 1.974H4.172c-.826 0-1.064-.238-1.064-.98v-3.178c0-.098.084-.168.182-.168h1.232c.098 0 .196.07.196.168v.994h5.74v-1.036c0-.098.084-.182.182-.182h1.246c.098 0 .182.084.182.182v3.262c0 .63-.252.938-1.05.938zm3.446-6.006c-.07.042-.21.028-.308-.126l-.504-.868c-.07-.154.014-.28.14-.322 2.786-1.036 4.2-2.338 4.466-4.984.014-.126.07-.294.224-.28l1.218.056c.154.014.238.112.224.308a5.106 5.106 0 01-.084.686c.448 1.792 2.366 3.332 4.508 3.934.112.042.154.182.098.28l-.462.896c-.07.14-.182.196-.336.154-1.708-.448-3.584-1.666-4.508-3.22-.938 1.638-2.59 2.8-4.676 3.486zm10.752 3.836H13.022c-.112 0-.196-.098-.196-.21v-.924c0-.112.084-.21.196-.21h5.264V9.604c0-.126.07-.196.196-.196H19.7c.112 0 .21.084.21.196V12.6h5.306c.098 0 .21.112.21.21v.924c0 .098-.112.21-.21.21zm11.622 2.24h-7.56c-.728 0-.938-.266-.938-.868v-1.68c0-.602.196-.84.924-.84h5.656c.154 0 .168-.042.168-.21v-.476c0-.21-.042-.224-.21-.224h-6.37c-.098 0-.196-.07-.196-.168v-.924a.21.21 0 01.196-.196h7.196c.77 0 .952.238.952.868v1.666c0 .658-.182.854-.952.854H30.09c-.154 0-.168.028-.168.182v.56c0 .168.042.168.21.168h6.692a.2.2 0 01.196.196v.896c0 .098-.112.196-.182.196zm-10.374-6.3l-.56-.672c-.112-.154-.112-.308.07-.406 2.198-1.218 3.15-2.968 3.15-5.53 0-.126.126-.21.224-.21l1.204.056c.126 0 .182.07.182.21 0 .77-.098 1.498-.28 2.198.602 1.302 1.876 2.352 2.898 2.8.154.07.182.182.084.35l-.476.756c-.098.14-.21.182-.364.112-1.134-.49-2.072-1.358-2.786-2.408-.658 1.19-1.624 2.1-2.898 2.758-.21.126-.35.112-.448-.014zm5.908-3.458v-.952c0-.098.098-.168.21-.168h2.478V3.108c0-.126.056-.182.182-.182h1.246c.126 0 .182.056.182.182v6.664c0 .098-.084.196-.182.196h-1.246c-.098 0-.182-.098-.182-.196V6.594h-2.478c-.112 0-.21-.07-.21-.168z" />
    </svg>
    <svg width="107" height="27" fill="none" viewBox="-4 -4 107 27" id="footer_link_series" y="24"
        xmlns="http://www.w3.org/2000/svg">
        <path
            d="M1.862 13.118c-.168.14-.336.14-.49-.014l-.644-.616c-.154-.126-.14-.28.042-.434a9.668 9.668 0 002.59-3.99c.448-1.344.644-2.59.602-4.242 0-.112.098-.21.196-.21l1.246.042c.098 0 .182.098.182.21 0 1.12-.084 2.072-.238 2.968.336 1.764 1.708 3.654 2.898 4.62.154.112.154.252.028.434l-.588.714c-.098.126-.266.154-.434.028-.924-.7-2.114-2.198-2.59-3.388-.672 1.554-1.778 3.052-2.8 3.878zm9.688 2.912c0 .126-.07.182-.196.182h-1.232c-.098 0-.196-.07-.196-.182V3.108c0-.098.098-.182.196-.182h1.232c.126 0 .196.056.196.182V16.03zm12.552 0c0 .126-.056.182-.182.182h-1.246c-.126 0-.182-.056-.182-.182V3.108c0-.126.056-.182.182-.182h1.246c.126 0 .182.056.182.182V16.03zm-2.8-3.528c-1.596.378-4.97.56-6.202.448-.826-.07-1.078-.294-1.078-1.008v-3.36c0-.672.322-.952.98-.952h3.332c.154 0 .196-.028.196-.21V5.46c0-.154-.014-.196-.196-.196h-4.032c-.098 0-.196-.084-.196-.182v-.966c0-.098.098-.168.196-.168h4.872c.798 0 .952.28.952.952v3.108c0 .714-.252.924-.98.924h-3.318c-.126 0-.196.07-.196.196v2.212c0 .21.056.252.266.252 1.638.07 3.71-.098 5.222-.392.126-.042.266.028.308.196l.126.84c.042.154-.098.224-.252.266zm5.916-2.086c-.126.042-.308-.042-.35-.14l-.378-.812c-.056-.126.042-.308.154-.35 2.87-.994 4.956-2.198 6.342-3.528.252-.238.238-.35-.056-.35h-5.25c-.126 0-.182-.056-.182-.182v-.98c0-.112.056-.168.182-.168h6.748c.77 0 1.148.21 1.148.63 0 .322-.21.784-.672 1.302a12.13 12.13 0 01-1.68 1.54c.868.49 2.73 1.26 3.654 1.512.154.042.196.14.126.294l-.406.924c-.042.098-.21.14-.364.098-1.176-.364-2.926-1.148-4.298-1.932a21.405 21.405 0 01-4.718 2.142zm10.78 2.296v.924c0 .098-.112.21-.21.21H25.594c-.112 0-.196-.112-.196-.21v-.924c0-.112.084-.21.196-.21h12.194c.098 0 .21.112.21.21z"
            fill="#000" />
        <path
            d="M45.168 14.452c-.693 0-.825-.165-.825-.781v-2.519c0-.077.066-.121.143-.121h.484c.077 0 .132.066.132.121v.88h5.357v-.869c0-.077.066-.132.143-.132h.484c.077 0 .132.055.132.132v2.585c0 .561-.187.704-.836.704h-5.214zm2.101-8.129c0 .902-.847 1.65-2.167 1.65-1.276 0-2.123-.748-2.123-1.65 0-1.012.847-1.661 2.123-1.661 1.199 0 2.167.66 2.167 1.661zm-2.167 6.369v.836c0 .22.055.264.264.264h4.829c.209 0 .264-.044.264-.264v-.836h-5.357zm4.169-2.42c0 .099-.055.154-.154.154h-.418c-.099 0-.154-.055-.154-.154v-.198h-1.562c-.099 0-.143-.044-.143-.132v-.374c0-.088.044-.132.143-.132h1.562V4.739c0-.099.055-.154.154-.154h.418c.099 0 .154.055.154.154v5.533zm-1.683-2.068c.121-.022.176.011.187.11l.055.352c.011.088-.033.143-.132.165a18.2 18.2 0 01-2.079.242v1.474c0 .088-.055.165-.143.165h-.473c-.077 0-.143-.077-.143-.165v-1.43c-.847.044-1.617.077-2.277.044-.088 0-.165-.066-.165-.143v-.374c0-.088.077-.143.165-.143.836.011 1.628 0 2.475-.044.968-.055 1.727-.11 2.53-.253zm-1.023-1.892c0-.671-.704-.99-1.463-.99-.792 0-1.419.33-1.419.99 0 .627.594 1.012 1.419 1.012.759 0 1.463-.396 1.463-1.012zm4.653 4.059c0 .099-.055.154-.154.154h-.418c-.099 0-.154-.055-.154-.154V4.552c0-.099.055-.154.154-.154h.418c.099 0 .154.055.154.154v5.819zm6.638-.836v2.607h4.334c.077 0 .165.055.165.143v.374c0 .077-.088.143-.165.143h-9.35c-.088 0-.165-.066-.165-.143v-.374c0-.088.077-.143.165-.143h4.257V9.535c0-.088.055-.165.143-.165h.473c.077 0 .143.077.143.165zM57.9 5.08c-.033.187-.055.385-.11.572.033.165.077.319.132.418.704 1.397 2.068 2.475 3.575 2.915.088.033.12.132.088.209l-.176.374c-.044.077-.077.132-.22.077-1.64-.583-2.981-1.661-3.762-3.036-.693 1.375-1.991 2.563-3.586 3.168-.121.044-.187.033-.22-.044l-.198-.385a.156.156 0 01.077-.209c2.035-.792 3.366-2.277 3.64-4.136.012-.088.056-.132.144-.132l.495.055c.088.011.132.066.12.154zm13.875 9.361c0 .077-.088.132-.143.132H66.1c-.694 0-.837-.231-.837-.847v-.825c0-.616.22-.781.88-.781h4.4c.21 0 .242-.033.242-.253v-.627c0-.22-.022-.253-.23-.253h-5.16c-.076 0-.153-.044-.153-.121v-.396c0-.077.076-.121.153-.121h5.28c.694 0 .87.176.87.803v.825c0 .616-.22.781-.88.781h-4.412c-.209 0-.23.033-.23.253v.671c0 .209.032.253.242.253h5.356c.078 0 .154.044.154.121v.385zm-4.96-9.702a6.028 6.028 0 01-.21 1.474c.507 1.034 1.53 2.024 2.453 2.376.088.033.077.132.044.187l-.198.374c-.043.088-.132.088-.22.055-.89-.352-1.88-1.276-2.43-2.134-.474.88-1.21 1.617-2.3 2.321-.099.077-.154.088-.23 0l-.275-.341c-.055-.077-.044-.154.055-.22 1.825-1.144 2.54-2.398 2.54-4.103 0-.121.078-.176.133-.176l.516.033c.078 0 .121.055.121.154zm4.576 4.994h-.452c-.098 0-.153-.055-.153-.154V7.082h-2.267c-.099 0-.143-.044-.143-.132v-.396c0-.088.044-.132.143-.132h2.266v-1.87c0-.099.056-.154.154-.154h.452c.099 0 .153.055.153.154v5.027c0 .099-.054.154-.153.154zm7.854-3.938c0-.616.187-.781.836-.781h3.025c.693 0 .836.154.836.781v3.399c0 .616-.187.781-.836.781h-3.025c-.693 0-.836-.165-.836-.781V5.795zm1.023-.121c-.209 0-.264.066-.264.286v3.069c0 .22.055.286.264.286h2.651c.21 0 .264-.066.264-.286V5.96c0-.22-.055-.286-.264-.286h-2.65zm6.127 6.028h-.45c-.1 0-.155-.055-.155-.154V4.552c0-.099.055-.154.154-.154h.451c.1 0 .154.055.154.154v3.146h1.518c.088 0 .165.055.165.143v.374c0 .077-.077.143-.165.143H86.55v3.19c0 .099-.055.154-.154.154zm.484 2.64H81.28c-.693 0-.836-.242-.836-.847V11.35c0-.099.055-.154.154-.154h.451c.1 0 .154.055.154.154v2.101c0 .209.044.231.253.231h5.423c.077 0 .165.055.165.132v.396c0 .088-.088.132-.165.132zm7.584-5.313c0 .99-.825 1.672-2.002 1.793v1.144c1.012-.055 2.2-.22 2.992-.363.12-.022.176 0 .187.077l.066.418c.01.088-.033.143-.143.154-.98.165-2.2.297-3.388.374-.847.055-2.398.077-3.223.044-.088 0-.165-.066-.165-.143v-.374c0-.088.077-.143.165-.143.649.033 1.848.022 2.75-.011v-1.166c-1.188-.121-2.013-.825-2.013-1.804 0-1.1 1.023-1.804 2.387-1.804s2.387.726 2.387 1.804zm2.277 5.511h-.451c-.1 0-.154-.055-.154-.154V4.552c0-.099.055-.154.154-.154h.45c.1 0 .155.055.155.154v4.301h1.518c.088 0 .165.055.165.143v.374c0 .077-.077.143-.165.143h-1.518v4.873c0 .099-.055.154-.154.154zm-3.025-5.511c0-.748-.682-1.155-1.64-1.155-.934 0-1.65.407-1.65 1.155 0 .726.716 1.166 1.65 1.166.958 0 1.64-.429 1.64-1.166zm1.287-2.376H89.15a.157.157 0 01-.154-.154v-.363c0-.088.077-.154.154-.154h5.852c.11 0 .165.044.165.143v.385c0 .099-.055.143-.165.143zM93.45 5.278h-2.904c-.077 0-.154-.055-.154-.143v-.374c0-.088.066-.154.143-.154h2.915c.11 0 .165.055.165.154v.363c0 .099-.055.154-.165.154z"
            fill="#7C7C7C" />
        <circle r=".75" transform="matrix(-1 0 0 1 75.75 9.75)" fill="#7C7C7C" />
    </svg>
    <svg width="105" height="27" fill="none" viewBox="-4 -4 105 27" id="footer_link_serieson" y="51"
        xmlns="http://www.w3.org/2000/svg">
        <path
            d="M1.862 13.118c-.168.14-.336.14-.49-.014l-.644-.616c-.154-.126-.14-.28.042-.434a9.668 9.668 0 002.59-3.99c.448-1.344.644-2.59.602-4.242 0-.112.098-.21.196-.21l1.246.042c.098 0 .182.098.182.21 0 1.12-.084 2.072-.238 2.968.336 1.764 1.708 3.654 2.898 4.62.154.112.154.252.028.434l-.588.714c-.098.126-.266.154-.434.028-.924-.7-2.114-2.198-2.59-3.388-.672 1.554-1.778 3.052-2.8 3.878zm9.688 2.912c0 .126-.07.182-.196.182h-1.232c-.098 0-.196-.07-.196-.182V3.108c0-.098.098-.182.196-.182h1.232c.126 0 .196.056.196.182V16.03zm12.552 0c0 .126-.056.182-.182.182h-1.246c-.126 0-.182-.056-.182-.182V3.108c0-.126.056-.182.182-.182h1.246c.126 0 .182.056.182.182V16.03zm-2.8-3.528c-1.596.378-4.97.56-6.202.448-.826-.07-1.078-.294-1.078-1.008v-3.36c0-.672.322-.952.98-.952h3.332c.154 0 .196-.028.196-.21V5.46c0-.154-.014-.196-.196-.196h-4.032c-.098 0-.196-.084-.196-.182v-.966c0-.098.098-.168.196-.168h4.872c.798 0 .952.28.952.952v3.108c0 .714-.252.924-.98.924h-3.318c-.126 0-.196.07-.196.196v2.212c0 .21.056.252.266.252 1.638.07 3.71-.098 5.222-.392.126-.042.266.028.308.196l.126.84c.042.154-.098.224-.252.266zm5.916-2.086c-.126.042-.308-.042-.35-.14l-.378-.812c-.056-.126.042-.308.154-.35 2.87-.994 4.956-2.198 6.342-3.528.252-.238.238-.35-.056-.35h-5.25c-.126 0-.182-.056-.182-.182v-.98c0-.112.056-.168.182-.168h6.748c.77 0 1.148.21 1.148.63 0 .322-.21.784-.672 1.302a12.13 12.13 0 01-1.68 1.54c.868.49 2.73 1.26 3.654 1.512.154.042.196.14.126.294l-.406.924c-.042.098-.21.14-.364.098-1.176-.364-2.926-1.148-4.298-1.932a21.405 21.405 0 01-4.718 2.142zm10.78 2.296v.924c0 .098-.112.21-.21.21H25.594c-.112 0-.196-.112-.196-.21v-.924c0-.112.084-.21.196-.21h12.194c.098 0 .21.112.21.21zm12.356-1.68H38.16c-.112 0-.196-.112-.196-.21v-.91c0-.154.07-.224.196-.224h5.292V8.246c-2.17-.182-3.64-1.064-3.64-2.52 0-1.624 1.848-2.562 4.48-2.562 2.618 0 4.466.938 4.466 2.562 0 1.442-1.512 2.366-3.696 2.52v1.442h5.292c.098 0 .21.112.21.224v.91c0 .098-.112.21-.21.21zm-1.596 4.858h-7.714c-.84 0-1.064-.266-1.064-.994v-2.744c0-.098.098-.21.196-.21h1.204c.112 0 .21.112.21.21v2.17c0 .182.056.224.266.224h6.902c.098 0 .21.07.21.168v1.008c0 .112-.112.168-.21.168zM44.292 4.452c-1.624 0-2.8.518-2.8 1.274 0 .742 1.176 1.26 2.8 1.26 1.61 0 2.786-.518 2.786-1.26 0-.756-1.176-1.274-2.786-1.274z"
            fill="#000" />
        <g clip-path="url(#eclip0_80_460)" fill="#7C7C7C">
            <path
                d="M62.283 12.966c0-1.144-1.177-1.837-3.278-1.837-2.09 0-3.267.693-3.267 1.837 0 1.111 1.177 1.826 3.267 1.826 2.101 0 3.278-.715 3.278-1.826zm-2.596-3.432h1.749v1.573h.836V5.156h-.836v1.276h-1.749v.715h1.749v1.672h-1.749v.715zm1.738 3.432c0 .704-.891 1.111-2.42 1.111-1.496 0-2.398-.407-2.398-1.111 0-.715.902-1.133 2.398-1.133 1.529 0 2.42.418 2.42 1.133zM56.97 5.739c-1.353 0-2.475.924-2.475 2.31 0 1.397 1.133 2.277 2.475 2.277 1.353 0 2.464-.88 2.464-2.288 0-1.397-1.111-2.299-2.464-2.299zm0 .715c.99 0 1.628.638 1.628 1.595 0 .968-.649 1.595-1.628 1.595-.946 0-1.639-.627-1.639-1.606 0-.957.693-1.584 1.639-1.584zm12.96 5.72c-.637.099-1.66.187-2.727.253v-.913c1.133-.11 1.87-.704 1.87-1.584 0-1.012-.913-1.628-2.277-1.628-1.353 0-2.277.627-2.277 1.628 0 .869.726 1.463 1.837 1.584v.957c-.924.033-1.903.033-2.585.011l.154.726c.803 0 1.815 0 2.882-.066a70.97 70.97 0 003.179-.286l-.055-.682zm2.96-2.035v-.715h-1.54V5.156h-.847v9.614h.847v-4.631h1.54zm-4.631-.209c0 .539-.583.924-1.463.924-.87 0-1.474-.385-1.474-.924 0-.561.605-.935 1.474-.935.88 0 1.463.374 1.463.935zm1.43-2.123v-.693h-5.72v.693h5.72zm-1.53-1.474v-.704H65.4v.704h2.76zm18.878 2.046v-.693h-1.463v-2.53h-.836v5.742h.836V8.379h1.463zm-1.364 4.543c0-1.1-1.09-1.826-3.157-1.826-2.024 0-3.124.726-3.124 1.826 0 1.111 1.1 1.826 3.124 1.826s3.157-.715 3.157-1.826zm-3.157-1.144c1.474 0 2.299.44 2.299 1.144s-.825 1.144-2.3 1.144c-1.407 0-2.254-.44-2.254-1.144 0-.693.825-1.144 2.255-1.144zm.495-1.529V5.673h-.847v1.584h-2.827V5.673H78.5v4.576h4.51zm-.847-.693h-2.827V7.95h2.827v1.606zm13.18 3.52c0-1.111-1.199-1.727-3.31-1.727-2.102 0-3.29.66-3.29 1.727 0 1.078 1.188 1.716 3.29 1.716 2.111 0 3.31-.616 3.31-1.716zm-3.31-1.034c1.528 0 2.452.385 2.452 1.034s-.924 1.023-2.453 1.023c-1.507 0-2.43-.374-2.43-1.023 0-.649.923-1.034 2.43-1.034zm4.344-1.485v-.704h-3.927V8.379h-.836v1.474H87.7v.704h8.68zm-.418-2.354c-1.44-.143-3.476-1.243-3.476-2.596v-.33h-.869v.33c0 1.353-1.848 2.431-3.465 2.607l.396.704c1.65-.297 3.102-1.309 3.487-2.233.462.924 1.947 1.936 3.542 2.233l.385-.715z" />
            <circle r=".75" transform="matrix(-1 0 0 1 75.75 9.75)" />
        </g>
        <defs>
            <clipPath id="eclip0_80_460">
                <path fill="#fff" transform="translate(54 2)" d="M0 0h43v15H0z" />
            </clipPath>
        </defs>
    </svg>
    <svg width="34" height="27" viewBox="-4 -4 34 27" id="footer_link_webtoon" x="101" y="102"
        xmlns="http://www.w3.org/2000/svg">
        <path
            d="M9.31 11.102H8.19c-.126 0-.182-.056-.182-.182v-.462H6.342c-.098 0-.196-.084-.196-.182v-.77c0-.098.098-.168.196-.168h1.666v-6.02c0-.126.056-.182.182-.182h1.12c.126 0 .196.056.196.182v7.602c0 .126-.07.182-.196.182zm1.386-8.176h1.19c.126 0 .182.056.182.182v7.868c0 .126-.056.182-.182.182h-1.19c-.126 0-.182-.056-.182-.182V3.108c0-.126.056-.182.182-.182zm-6.832 1.4c-.798 0-1.4.476-1.4 1.036 0 .504.602 1.036 1.4 1.036.826 0 1.414-.518 1.414-1.036 0-.56-.588-1.036-1.414-1.036zm0-1.106c1.568 0 2.842.91 2.842 2.142 0 1.176-1.232 2.1-2.842 2.1-1.554 0-2.856-.924-2.856-2.1 0-1.232 1.288-2.142 2.856-2.142zm3.472 5.572c-.63.112-1.834.224-2.604.266v1.89c0 .112-.098.21-.21.21H3.388a.215.215 0 01-.21-.21V9.184c-1.12.042-1.932.028-2.716.028-.112 0-.196-.112-.196-.224v-.812c0-.126.07-.196.196-.196 2.702.042 4.802-.056 6.706-.322.098-.014.21.042.224.154l.084.756c.014.098-.042.21-.14.224zm3.122 5.348h-5.74v.518c0 .168.084.252.252.252h5.236c.168 0 .252-.084.252-.252v-.518zm.56 1.974H4.172c-.826 0-1.064-.238-1.064-.98v-3.178c0-.098.084-.168.182-.168h1.232c.098 0 .196.07.196.168v.994h5.74v-1.036c0-.098.084-.182.182-.182h1.246c.098 0 .182.084.182.182v3.262c0 .63-.252.938-1.05.938zm3.796-8.316v-3.57c0-.686.28-.952.994-.952h7.42c.126 0 .196.056.196.182v.868c0 .126-.07.182-.196.182h-6.622c-.168 0-.182 0-.182.168v.728h6.594c.098 0 .21.084.21.182v.84c0 .112-.112.182-.21.182h-6.594v.7c0 .21-.014.196.196.196h6.664c.154 0 .238.056.238.182v.826c0 .154-.084.224-.238.224h-7.476c-.742 0-.994-.266-.994-.938zm10.402 3.29h-5.18v2.24c0 .112-.084.21-.196.21h-1.218c-.112 0-.196-.098-.196-.21v-2.24h-5.404c-.112 0-.196-.112-.196-.21v-.882c0-.154.07-.224.196-.224h12.194c.098 0 .21.112.21.224v.882c0 .098-.112.21-.21.21zm-1.526 4.788h-7.924c-.84 0-1.064-.28-1.064-1.008V12.25c0-.098.098-.21.196-.21h1.204c.112 0 .21.112.21.21v2.058c0 .182.07.224.252.224h7.126c.098 0 .21.07.21.168v1.008c0 .112-.098.168-.21.168z" />
    </svg>
    <svg width="68" height="20" viewBox="-4 -4 68 20" id="gnb_naver" x="107" y="24"
        xmlns="http://www.w3.org/2000/svg">
        <defs>
            <path id="ga" d="M0 0h10.875v11.436H0z" />
        </defs>
        <g fill="none" fill-rule="evenodd">
            <path
                d="M17.154 0l-4.485 11.436h3.812l.541-1.514h4.299l.54 1.514h3.813L21.19 0h-4.036zm2.018 3.603l1.277 3.572h-2.556l1.279-3.572zM37.895 0v11.436h9.025V8.633h-5.382V7.09h5.214V4.345h-5.214V2.803h5.27V0zm-4.989 0l-2.691 7.52L27.525 0h-3.813l4.485 11.436h4.036L36.717 0zM7.792 0v6.12L3.532 0H0v11.436h3.7v-6.12l4.26 6.12h3.531V0z"
                fill="#1E1E1E" />
            <g transform="translate(48.714)">
                <mask id="gb" fill="#fff">
                    <use xlink:href="#ga" />
                </mask>
                <path
                    d="M5.494 5.325H3.532v-2.41h1.962a1.205 1.205 0 010 2.41zm2.49 2.187l.347-.145c1.328-.556 2.005-1.76 2.005-3.287 0-1.445-.527-2.513-1.566-3.177C7.804.287 6.55 0 4.828 0H0v11.436h3.588V8.24h1.29l2.186 3.195h3.811L7.984 7.512z"
                    fill="#1E1E1E" mask="url(#gb)" />
            </g>
        </g>
    </svg>
    <svg width="55" height="27" viewBox="-4 -4 55 27" id="gnb_novel" x="105" y="51"
        xmlns="http://www.w3.org/2000/svg">
        <path
            d="M14.311 17.062v-5.328h-1.566v1.386H5.149v-1.368H3.601v5.31h10.71zM8.551 4.714c0-1.674-1.566-2.628-3.528-2.628-1.998 0-3.564.954-3.564 2.628 0 1.638 1.584 2.574 3.564 2.574 1.944 0 3.528-.936 3.528-2.574zm2.88 6.336V1.798h-1.53v7.524H7.255v1.152h2.646v.576h1.53zm2.88.054V1.528h-1.548v9.576h1.548zm-8.658-.054V9.178c1.242-.09 2.502-.198 3.582-.36l-.162-1.206c-1.26.18-2.88.288-4.176.342-1.566.09-3.042.108-4.302.108l.234 1.314c.828 0 2.052-.036 3.294-.09v1.764h1.53zm7.092 4.734H5.149v-1.386h7.596v1.386zM7.039 4.714c0 .792-.9 1.296-2.016 1.296-1.152 0-2.034-.504-2.034-1.296 0-.81.828-1.368 2.034-1.368 1.188 0 2.016.558 2.016 1.368zm23.058 4.464c-2.394-.468-5.778-2.772-5.778-5.4v-1.08h-1.638v1.08c0 2.646-3.168 4.896-5.742 5.346l.81 1.296c2.556-.666 5.112-2.628 5.742-4.428.738 1.782 3.276 3.744 5.742 4.446l.864-1.26zm.504 6.084v-1.296h-6.336V10.06h-1.602v3.906h-6.264v1.296h14.202zm12.672-9.378V9.61h1.602V1.528h-1.602V4.57h-3.06v1.314h3.06zM41.095 7.99c-1.728-.558-3.744-2.142-3.744-4.662V2.104h-1.62V3.4c0 2.484-1.764 4.248-3.888 5.094l.954 1.188c1.746-.774 3.294-2.178 3.78-3.798.72 1.584 2.196 2.772 3.618 3.33l.9-1.224zm4.338 9.162v-1.314h-9.18v-1.476h8.622v-3.906H34.561v1.278h8.712v1.44h-8.604v3.978h10.764z"
            fill="#BBB" />
    </svg>
    <svg width="55" height="27" viewBox="-4 -4 55 27" id="gnb_series" y="102"
        xmlns="http://www.w3.org/2000/svg">
        <path
            d="M13.843 17.26V1.528h-1.584V17.26h1.584zm-3.456-4.968c-2.178-1.26-3.942-3.816-3.942-6.768v-2.61H4.789v2.682c0 2.898-1.674 5.634-4.032 7.128l.99 1.17c1.782-1.17 3.33-3.168 3.888-5.094.576 1.836 2.394 3.708 3.798 4.68l.954-1.188zm16.02-.576c-1.908.36-4.95.486-7.146.486h-.468V8.638h5.886V2.95h-7.542v1.296h5.958V7.36h-5.886v6.192h1.962c3.186-.036 5.76-.252 7.398-.522l-.162-1.314zm1.368-10.188V17.26h1.602V1.528h-1.602zm17.892 8.658c-2.358-.414-5.76-2.61-5.76-5.166v-.414h4.968V3.328h-11.61v1.278h4.968v.414c0 2.592-3.276 4.734-5.742 5.13l.792 1.278c2.448-.612 5.094-2.358 5.778-4.248.81 1.854 3.366 3.636 5.778 4.284l.828-1.278zm.504 4.95V13.84H31.969v1.296h14.202z"
            fill="#BBB" />
    </svg>
    <svg width="50" height="35" viewBox="-4 -4 50 35" id="gnb_webtoon" y="129"
        xmlns="http://www.w3.org/2000/svg">
        <path
            d="M19.44 23.632v-7.008h-3.096v1.2H7.152V16.48H3.984v7.152H19.44zM11.28 6.664c0-1.944-2.112-3.312-4.776-3.312-2.712 0-4.776 1.368-4.776 3.312 0 1.944 2.064 3.288 4.776 3.288 2.664 0 4.776-1.344 4.776-3.288zm-1.656 8.424h2.688v.672h2.904V2.896h-2.904V13.12H9.624v1.968zm9.816.696V2.512h-3v13.272h3zm-11.808-.168V12.76a64.207 64.207 0 003.816-.432l-.216-2.256c-2.712.432-6.144.456-9.6.456h-.84c.072.816.192 1.656.288 2.496C2.16 13 3.36 13 4.632 12.928v2.688h3zm8.712 5.592H7.152v-1.032h9.192v1.032zM8.352 6.688c0 .6-.792 1.08-1.848 1.08-1.104 0-1.896-.48-1.896-1.08 0-.6.792-1.08 1.896-1.08 1.056 0 1.848.48 1.848 1.08zm29.832 2.856v-2.4H27.336V6.04H38.52V3.568H24.192v9.408h14.496v-2.4H27.336V9.544h10.848zm-4.992 10.104v-2.976h7.848v-2.544H21.72v2.544H30v2.976h3.192zm5.424 3.744V20.92H27.312v-3.216h-3.144v5.688h14.448z"
            fill="#020202" />
    </svg>
    <svg width="26" height="26" viewBox="-4 -4 26 26" id="icon_search" x="135" y="102"
        xmlns="http://www.w3.org/2000/svg">
        <g stroke="#797979" stroke-width="1.2" fill="none" fill-rule="evenodd"
            stroke-linecap="round" stroke-linejoin="round">
            <circle cx="7.65" cy="7.65" r="6.65" />
            <path d="M12.456 12.456l4.314 4.314" />
        </g>
    </svg>
</svg>